<svg version="1.1" height="106" width="106" xmlns="http://www.w3.org/2000/svg" xmlns:xlink="http://www.w3.org/1999/xlink">
  <defs>
    <path d="M30.0712626,12.82949852 L30.1695906,12.82949852 L37.8630678,21.3899234 L19.7289426,21.3899234 L11.8523392,12.82949852 L11.908694,12.82949852 L11.8045876,12.71553858 L3.3710439,0 L48.2028196,0 C58.0424248,0 66.0204678,7.97440028 66.0204678,17.81203628 C66.0204678,27.6496722 58.0424248,35.6240726 48.2028196,35.6240726 L24.5953398,35.6240726 L18.8654128,56.4106194 L4.0531646,56.4106194 L2.5736352,56.4106194 L0,56.4106194 L2.95453772,55.028729 L11.8045876,22.9266126 L11.8045876,22.908534 L20.9852428,22.908534 L31.1260662,22.908534 L48.2028196,22.908534 C51.0177684,22.908534 53.3003578,20.6266634 53.3003578,17.81203628 C53.3003578,14.99740914 51.0177684,12.71553858 48.2028196,12.71553858 L31.1260662,12.71553858 L29.9675348,12.71553858 L30.0712626,12.82949852 Z M67,53.3938846 L53.3312882,53.3938846 L65.3390148,66.4 L29.9736842,48.9299166 L44.929321,48.9299166 L34.2079552,37.1766268 L48.2659604,37.1766268 C49.5212906,37.1766268 50.7495394,37.0534906 51.9382948,36.8235988 L67,53.3938846 Z" id="path-4"/>
    <circle id="hole" cy="-40" r="3"/>
    <polygon id="cog" stroke="black" stroke-width="3" stroke-linejoin="round" points="46,3 51,0 46,-3"/>
    <polygon id="mount" stroke="black" stroke-width="6" stroke-linejoin="round" points="-7,-42 0,-35 7,-42"/>
  </defs>
  
  <g id="logo" transform="translate(53, 53)">
    <g id="gear" mask="url(#holes)">
      <circle r="43" fill="none" stroke="black" stroke-width="9"/>
      <g id="cogs">
        <use xlink:href="#cog" transform="rotate(0)"/>
        <use xlink:href="#cog" transform="rotate(11.25)"/>
        <use xlink:href="#cog" transform="rotate(22.50)"/>
        <use xlink:href="#cog" transform="rotate(33.75)"/>
        <use xlink:href="#cog" transform="rotate(45.00)"/>
        <use xlink:href="#cog" transform="rotate(56.25)"/>
        <use xlink:href="#cog" transform="rotate(67.50)"/>
        <use xlink:href="#cog" transform="rotate(78.75)"/>
        <use xlink:href="#cog" transform="rotate(90.00)"/>
        <use xlink:href="#cog" transform="rotate(101.25)"/>
        <use xlink:href="#cog" transform="rotate(112.50)"/>
        <use xlink:href="#cog" transform="rotate(123.75)"/>
        <use xlink:href="#cog" transform="rotate(135.00)"/>
        <use xlink:href="#cog" transform="rotate(146.25)"/>
        <use xlink:href="#cog" transform="rotate(157.50)"/>
        <use xlink:href="#cog" transform="rotate(168.75)"/>
        <use xlink:href="#cog" transform="rotate(180.00)"/>
        <use xlink:href="#cog" transform="rotate(191.25)"/>
        <use xlink:href="#cog" transform="rotate(202.50)"/>
        <use xlink:href="#cog" transform="rotate(213.75)"/>
        <use xlink:href="#cog" transform="rotate(225.00)"/>
        <use xlink:href="#cog" transform="rotate(236.25)"/>
        <use xlink:href="#cog" transform="rotate(247.50)"/>
        <use xlink:href="#cog" transform="rotate(258.75)"/>
        <use xlink:href="#cog" transform="rotate(270.00)"/>
        <use xlink:href="#cog" transform="rotate(281.25)"/>
        <use xlink:href="#cog" transform="rotate(292.50)"/>
        <use xlink:href="#cog" transform="rotate(303.75)"/>
        <use xlink:href="#cog" transform="rotate(315.00)"/>
        <use xlink:href="#cog" transform="rotate(326.25)"/>
        <use xlink:href="#cog" transform="rotate(337.50)"/>
        <use xlink:href="#cog" transform="rotate(348.75)"/>
      </g>
      <g id="mounts">
        <use xlink:href="#mount" transform="rotate(0)"/>
        <use xlink:href="#mount" transform="rotate(72)"/>
        <use xlink:href="#mount" transform="rotate(144)"/>
        <use xlink:href="#mount" transform="rotate(216)"/>
        <use xlink:href="#mount" transform="rotate(288)"/>
      </g>
    </g>
    <mask id="holes">
      <rect x="-60" y="-60" width="120" height="120" fill="white"/>
      <use xlink:href="#hole" transform="rotate(0)"/>
      <use xlink:href="#hole" transform="rotate(72)"/>
      <use xlink:href="#hole" transform="rotate(144)"/>
      <use xlink:href="#hole" transform="rotate(216)"/>
      <use xlink:href="#hole" transform="rotate(288)"/>
    </mask>
  </g>
  
  <use fill="rgba(25, 119, 177, 1)" xlink:href="#path-4" transform="translate(16, 22)"/>
</svg>
